<svg width="150" height="150" viewBox="0 0 150 150" fill="none" xmlns="http://www.w3.org/2000/svg">
<rect width="150" height="150" rx="14.1243" fill="white"/>
<path d="M126.868 100.919L117.913 108.808C115.475 110.956 112.599 112.606 109.285 113.758C106.017 114.914 102.67 115.653 99.2435 115.977C95.8639 116.303 92.7763 116.284 89.9807 115.919L86.8143 103.598C89.5258 103.065 92.4247 102.168 95.5111 100.907C98.5975 99.6463 101.857 97.5036 105.29 94.4794L114.245 86.5901L126.868 100.919Z" fill="#293BFF"/>
<path d="M34.1808 126.137V24.2938H78.1406C85.6993 24.2938 92.3131 25.7856 97.9822 28.7693C103.651 31.753 108.06 35.9468 111.21 41.3506C114.359 46.7544 115.934 53.0699 115.934 60.297C115.934 67.5905 114.31 73.906 111.061 79.2435C107.845 84.581 103.32 88.6919 97.4849 91.5761C91.6832 94.4604 84.9036 95.9025 77.146 95.9025H50.8895V74.4199H71.5765C74.8254 74.4199 77.5936 73.8563 79.8811 72.7291C82.2017 71.5688 83.9754 69.9277 85.202 67.806C86.4618 65.6843 87.0917 63.1813 87.0917 60.297C87.0917 57.3796 86.4618 54.8932 85.202 52.8378C83.9754 50.7492 82.2017 49.1579 79.8811 48.0639C77.5936 46.9367 74.8254 46.3731 71.5765 46.3731H61.8297V126.137H34.1808Z" fill="#293BFF"/>
</svg>
